<svg 
 xmlns="http://www.w3.org/2000/svg"
 xmlns:xlink="http://www.w3.org/1999/xlink"
 width="311px" height="309px">
<path fill-rule="evenodd"  fill="rgb(63, 62, 65)"
 d="M111.195,18.494 L111.316,18.188 L112.054,18.187 L112.361,18.554 L111.839,18.984 L111.195,18.494 ZM310.012,67.724 L309.522,68.612 L309.598,69.131 L309.459,69.742 L307.954,72.133 L306.972,73.023 L306.523,73.961 L306.048,74.375 L305.589,75.918 L305.114,75.873 L304.688,75.643 L304.763,75.200 L304.963,74.802 L304.594,74.665 L304.198,74.985 L303.708,75.873 L303.524,75.919 L303.814,76.438 L303.340,76.562 L302.651,77.876 L302.651,78.579 L302.391,79.223 L302.560,79.268 L302.943,79.999 L302.714,80.048 L303.218,81.500 L303.554,81.805 L303.403,82.201 L301.381,82.370 L300.969,82.660 L300.401,82.386 L299.485,82.630 L298.000,84.434 L298.000,85.688 L297.632,86.025 L296.867,86.805 L296.377,86.606 L295.368,86.775 L293.962,86.745 L293.593,87.125 L293.028,87.690 L293.134,88.089 L293.058,88.593 L293.439,88.807 L293.394,89.282 L293.197,89.327 L293.242,89.496 L292.263,90.949 L291.773,90.995 L291.129,90.595 L290.440,90.735 L289.630,90.672 L288.191,91.451 L287.303,91.421 L286.780,92.278 L285.982,92.278 L285.768,92.125 L285.227,92.263 L284.324,92.493 L282.759,92.831 L281.378,94.518 L281.257,95.529 L281.592,95.868 L281.471,96.113 L281.625,96.571 L279.873,96.940 L279.075,97.676 L277.480,98.473 L274.963,98.932 L274.565,99.363 L270.092,100.688 L269.662,100.643 L268.913,101.009 L268.072,102.383 L266.893,103.362 L266.328,103.362 L266.080,103.135 L265.699,103.501 L265.116,103.624 L264.611,103.226 L263.985,103.196 L262.536,104.330 L262.446,104.820 L261.923,105.251 L260.388,105.405 L258.485,106.139 L257.687,105.955 L257.442,105.650 L256.276,105.710 L256.122,105.466 L255.478,105.435 L254.956,105.587 L253.944,106.232 L253.484,107.304 L253.085,107.365 L252.318,108.440 L251.551,108.747 L251.121,108.318 L250.321,108.318 L249.493,109.022 L248.819,109.176 L247.683,108.808 L247.469,109.083 L246.641,109.206 L246.302,108.530 L246.149,107.519 L245.290,106.601 L244.859,105.496 L245.290,105.221 L245.227,104.087 L244.185,103.136 L243.663,99.365 L242.681,98.107 L242.651,97.494 L242.221,97.494 L241.944,96.911 L242.590,97.095 L242.590,96.667 L243.049,96.667 L243.113,95.440 L242.744,93.385 L242.484,92.638 L241.762,90.563 L240.472,90.194 L240.197,88.449 L239.735,88.449 L236.668,85.352 L236.605,84.308 L235.747,83.788 L234.796,80.293 L234.273,80.078 L234.397,79.495 L233.385,79.312 L233.354,78.699 L232.155,77.688 L231.759,77.688 L231.206,76.890 L230.386,76.825 L229.697,76.532 L227.632,74.332 L227.508,73.768 L226.776,73.125 L226.607,71.581 L226.208,70.113 L225.903,69.470 L226.208,69.196 L226.514,67.866 L226.272,67.423 L226.019,66.005 L225.222,65.299 L224.883,63.919 L224.485,63.582 L224.364,62.570 L224.056,62.509 L223.750,61.620 L222.738,60.577 L221.448,59.994 L220.590,59.290 L219.974,59.904 L219.421,59.566 L219.391,58.891 L218.533,58.279 L218.533,57.696 L218.777,57.173 L218.533,55.948 L217.950,55.549 L217.213,53.618 L216.294,53.219 L215.893,52.667 L215.711,51.655 L215.065,51.533 L214.759,50.828 L214.729,50.184 L213.563,48.191 L213.131,48.160 L212.243,47.363 L212.089,46.534 L211.690,46.351 L211.506,45.493 L209.726,43.500 L209.971,43.346 L209.050,42.826 L208.530,43.192 L208.345,42.886 L207.762,43.101 L207.669,42.672 L208.101,41.507 L208.037,39.789 L208.149,38.294 L208.161,38.133 L208.510,37.123 L208.479,36.729 L208.449,36.777 L207.980,37.519 L207.823,37.766 L207.210,40.005 L207.119,40.862 L206.626,42.089 L206.995,42.457 L206.687,43.897 L206.137,44.420 L205.983,44.910 L205.859,44.666 L204.786,44.083 L202.853,42.027 L202.605,41.262 L201.533,40.770 L201.134,39.973 L201.134,39.176 L199.569,37.857 L199.478,37.336 L199.109,36.907 L198.832,35.864 L198.433,35.864 L198.279,35.620 L198.097,35.895 L198.158,36.447 L198.064,37.000 L198.925,38.103 L198.925,39.023 L200.427,40.802 L200.611,41.446 L202.974,43.438 L203.312,44.083 L203.158,44.726 L203.221,45.309 L204.602,46.810 L204.602,47.271 L205.031,47.792 L205.185,49.356 L205.614,50.030 L205.583,50.889 L208.130,54.629 L208.315,55.764 L208.989,56.193 L210.601,58.555 L210.955,59.640 L211.414,60.192 L211.460,59.915 L211.725,60.118 L212.388,61.143 L212.775,61.211 L213.239,61.705 L212.045,61.628 L211.742,61.371 L211.656,61.735 L211.916,62.275 L211.969,63.279 L211.826,63.845 L212.454,65.955 L213.708,66.764 L214.473,66.795 L214.963,66.567 L215.483,67.637 L216.326,67.882 L216.568,68.386 L217.517,69.347 L218.222,69.624 L218.209,69.707 L218.161,70.050 L218.070,70.419 L218.285,70.724 L218.176,70.938 L218.330,71.122 L218.312,71.292 L218.482,71.519 L218.754,72.643 L219.529,73.576 L219.521,73.965 L219.325,73.973 L219.219,73.708 L218.898,73.319 L218.762,73.448 L218.870,74.192 L219.850,77.105 L220.066,78.699 L219.827,80.202 L220.379,81.945 L221.109,83.330 L221.785,83.481 L223.565,84.676 L223.565,85.443 L224.393,85.476 L225.281,85.935 L225.281,86.487 L225.551,86.487 L225.589,86.487 L226.541,87.499 L228.227,91.945 L228.780,94.858 L229.088,94.949 L229.302,96.021 L229.302,96.390 L229.855,96.574 L230.193,97.434 L230.408,98.690 L231.112,98.874 L231.051,97.739 L230.867,97.769 L230.928,96.942 L231.236,96.821 L231.973,97.862 L231.695,98.170 L232.374,99.192 L232.849,99.666 L233.245,99.391 L233.843,99.312 L234.103,99.466 L234.623,99.282 L235.373,100.122 L235.757,100.596 L236.887,100.858 L237.132,101.285 L238.510,102.813 L239.091,103.837 L239.932,104.190 L240.515,104.909 L240.850,104.909 L240.881,104.664 L241.156,105.045 L241.830,106.727 L242.335,106.866 L242.915,107.613 L242.764,107.857 L243.130,108.655 L243.559,108.655 L244.003,108.883 L244.323,108.594 L244.462,108.823 L244.675,108.921 L244.692,108.929 L244.675,109.234 L245.608,110.152 L245.868,110.152 L245.747,110.533 L245.886,111.786 L245.472,111.956 L244.722,112.798 L244.157,112.811 L243.743,113.424 L242.869,113.424 L243.314,113.973 L243.589,114.035 L244.217,113.774 L245.273,113.759 L245.409,114.047 L245.654,114.556 L245.913,114.602 L248.377,117.307 L248.668,117.918 L249.066,118.023 L250.076,118.942 L251.071,119.187 L252.249,119.033 L252.615,118.591 L253.670,117.948 L254.332,117.933 L255.692,116.848 L256.089,116.833 L256.334,117.063 L257.437,117.015 L257.818,116.879 L258.628,117.259 L259.807,117.123 L262.271,115.594 L263.066,115.440 L263.864,115.791 L264.474,115.594 L265.570,115.642 L266.703,115.080 L267.983,114.989 L268.369,115.216 L268.789,115.211 L270.762,114.845 L271.512,114.248 L272.706,114.081 L273.044,114.386 L273.166,114.050 L274.410,113.902 L275.132,113.186 L275.271,113.294 L275.581,112.706 L275.483,112.608 L275.978,112.123 L276.321,112.169 L276.273,111.985 L276.760,112.328 L277.803,112.686 L278.267,112.648 L278.451,112.762 L278.032,113.384 L277.772,114.030 L277.727,114.683 L277.492,115.087 L277.689,115.445 L278.214,115.460 L278.252,115.702 L277.825,116.060 L277.462,116.903 L277.825,117.397 L277.956,118.083 L277.659,118.719 L278.206,118.643 L278.138,118.447 L278.398,118.517 L278.633,119.001 L278.373,119.137 L278.290,118.979 L277.772,118.986 L277.419,119.079 L276.823,120.088 L277.144,120.623 L276.990,121.586 L276.729,122.013 L276.793,123.070 L275.391,125.027 L274.435,127.045 L273.854,127.764 L273.531,127.700 L272.630,128.679 L272.569,129.136 L272.968,129.718 L272.448,130.177 L270.146,134.563 L270.052,135.850 L268.581,137.905 L268.520,138.579 L265.756,142.319 L265.481,143.179 L264.254,144.435 L262.105,147.041 L257.594,151.029 L255.661,152.684 L254.310,152.930 L253.174,153.727 L251.733,154.830 L248.969,157.744 L248.355,157.928 L246.086,160.442 L245.687,160.596 L245.349,161.209 L244.521,161.454 L243.660,162.281 L243.291,163.141 L239.946,166.841 L239.899,167.033 L239.838,167.283 L238.508,168.905 L238.187,169.013 L237.710,169.532 L237.955,169.929 L236.564,170.418 L235.829,171.442 L234.635,171.442 L234.130,171.611 L234.055,171.901 L233.474,172.574 L233.441,173.064 L233.701,173.263 L233.030,174.302 L232.371,175.112 L232.371,176.030 L231.772,177.313 L230.306,179.455 L229.448,179.805 L229.094,179.796 L228.943,179.790 L229.142,180.020 L229.218,180.646 L228.943,181.044 L228.072,183.736 L227.398,185.433 L227.443,186.363 L228.592,187.357 L229.447,188.320 L229.982,188.245 L230.520,189.743 L230.290,190.217 L229.952,190.109 L229.462,190.432 L229.217,191.411 L229.293,192.909 L229.906,193.503 L229.800,194.452 L229.248,194.911 L229.386,195.811 L229.830,196.883 L229.601,196.944 L229.846,197.433 L230.015,198.228 L230.487,198.641 L230.090,199.297 L230.474,199.756 L230.885,200.964 L230.747,201.577 L232.185,202.967 L233.241,203.121 L234.116,203.859 L234.116,204.258 L234.222,204.323 L234.515,204.503 L234.361,205.453 L234.147,205.945 L234.361,206.129 L233.533,207.326 L233.440,207.753 L233.594,208.062 L233.654,208.306 L233.349,208.611 L233.533,210.054 L233.992,210.911 L233.748,211.159 L233.748,212.201 L233.977,212.445 L234.005,213.454 L233.578,213.883 L233.730,214.952 L233.439,216.957 L233.273,216.970 L233.500,217.308 L233.517,219.126 L232.904,219.219 L232.874,219.449 L233.088,219.740 L233.899,219.770 L234.113,219.938 L234.298,221.513 L233.883,222.107 L233.454,222.322 L233.717,222.685 L233.593,223.084 L233.070,223.084 L232.488,223.669 L232.641,223.884 L232.826,223.729 L233.348,223.790 L232.980,224.312 L232.889,225.139 L232.366,225.231 L231.475,226.365 L231.475,226.857 L230.677,227.962 L230.003,228.053 L230.064,228.819 L227.363,230.290 L226.964,230.323 L226.749,230.902 L224.167,232.275 L223.172,232.154 L223.127,232.366 L221.948,232.918 L220.312,233.988 L219.914,233.728 L219.898,234.232 L218.904,235.441 L218.414,235.655 L218.124,235.012 L217.955,236.066 L217.480,236.190 L217.326,236.800 L215.690,237.764 L215.660,238.177 L215.231,238.543 L214.850,238.666 L214.895,239.231 L213.946,239.261 L211.773,240.718 L211.896,241.636 L211.192,242.158 L210.207,242.158 L209.811,242.680 L209.041,242.188 L208.612,242.249 L208.612,242.587 L209.011,243.048 L208.981,243.691 L208.675,244.090 L208.796,244.703 L208.367,245.346 L209.533,246.909 L209.563,247.462 L209.041,247.891 L209.442,248.075 L209.871,248.781 L209.902,249.732 L210.381,250.622 L210.182,253.159 L210.411,254.047 L210.702,254.001 L210.702,253.298 L211.161,252.319 L211.222,253.175 L211.421,253.144 L211.373,254.247 L211.037,254.667 L210.974,255.773 L211.158,255.927 L210.669,257.213 L210.669,257.888 L210.300,258.348 L210.239,259.175 L210.022,259.175 L210.176,259.881 L210.792,259.512 L210.931,259.979 L210.426,260.743 L210.181,261.782 L208.697,263.356 L206.064,264.550 L202.500,265.253 L201.137,266.552 L200.097,266.812 L199.791,267.302 L199.271,267.715 L198.981,268.709 L198.567,268.694 L198.186,268.954 L198.352,269.168 L198.751,269.915 L198.706,270.633 L199.072,270.162 L199.655,270.344 L199.837,269.657 L200.096,269.609 L200.127,269.993 L199.958,271.133 L199.559,271.809 L199.536,272.435 L199.529,272.636 L199.036,273.279 L199.284,273.373 L198.791,274.843 L198.668,276.102 L198.062,277.315 L197.665,278.875 L197.082,279.577 L196.901,280.296 L195.782,281.612 L195.431,281.612 L195.184,281.963 L194.358,282.346 L193.977,282.818 L192.998,283.446 L192.500,284.410 L191.703,285.330 L191.703,285.729 L191.241,286.587 L190.476,286.619 L189.860,287.815 L188.173,290.635 L186.876,291.871 L186.661,293.001 L185.912,293.324 L185.192,294.179 L184.781,294.194 L184.596,294.514 L180.358,298.688 L179.838,298.779 L179.853,298.996 L179.164,299.760 L176.380,301.549 L175.784,302.205 L174.804,302.497 L174.804,302.757 L173.249,303.166 L172.361,303.713 L171.447,303.796 L171.006,303.461 L169.766,303.509 L168.739,303.819 L168.305,304.566 L168.915,305.073 L168.862,305.287 L167.446,305.317 L166.616,304.891 L165.954,304.823 L165.384,305.400 L165.629,305.910 L165.368,306.160 L163.422,305.744 L162.870,305.326 L161.002,304.851 L159.777,305.096 L159.762,305.386 L159.121,305.616 L158.172,305.111 L155.999,305.096 L155.355,305.386 L155.158,306.059 L154.729,305.860 L154.224,305.999 L153.780,306.364 L153.535,306.687 L152.570,306.748 L151.945,307.023 L150.750,306.595 L149.741,306.655 L149.542,306.948 L148.562,306.733 L147.691,307.727 L146.957,307.863 L146.697,308.443 L146.267,308.292 L145.884,308.476 L143.864,307.528 L143.453,307.773 L143.405,306.794 L142.640,306.396 L142.060,306.688 L141.676,306.519 L142.014,306.244 L141.800,305.401 L140.851,305.235 L140.176,305.830 L140.224,306.580 L139.704,306.196 L139.657,305.371 L139.949,304.683 L139.765,303.659 L140.315,302.759 L139.596,301.457 L138.877,300.817 L138.266,299.762 L138.266,298.720 L138.693,298.325 L139.091,298.736 L139.457,298.736 L139.932,298.217 L140.177,296.963 L139.735,295.603 L139.811,294.991 L138.645,293.058 L138.612,292.171 L137.476,290.698 L136.956,288.337 L136.098,286.100 L136.128,284.965 L135.268,282.480 L133.950,281.532 L133.733,280.213 L133.705,280.193 L132.322,279.202 L132.108,278.649 L131.126,277.668 L130.144,275.736 L129.407,274.725 L129.331,273.159 L128.687,272.458 L128.687,271.630 L129.117,271.295 L128.751,270.576 L128.198,270.286 L127.905,268.162 L127.413,267.549 L127.996,267.181 L127.628,266.016 L127.751,264.298 L126.555,261.110 L126.431,257.983 L125.848,255.897 L126.371,255.683 L126.371,253.998 L124.223,250.900 L124.223,249.765 L122.196,246.883 L121.891,245.074 L119.882,240.570 L118.592,238.360 L116.194,235.904 L115.975,232.446 L115.949,232.035 L116.133,230.744 L116.071,228.779 L116.257,227.490 L116.257,226.017 L117.363,224.665 L117.608,223.129 L118.593,221.840 L118.593,218.584 L118.961,218.278 L119.022,216.927 L121.236,214.962 L121.296,213.978 L123.079,212.626 L123.571,212.626 L125.169,209.620 L125.169,206.056 L124.677,205.444 L124.740,204.767 L123.203,202.250 L123.203,201.206 L122.587,200.222 L122.587,198.749 L121.850,198.381 L123.142,196.724 L123.324,195.128 L122.097,193.407 L122.017,190.250 L119.775,187.737 L119.775,187.155 L119.346,186.633 L120.513,185.989 L120.020,185.622 L118.854,185.592 L118.642,185.117 L118.425,184.641 L118.887,183.780 L118.609,182.617 L118.120,182.081 L117.658,181.574 L117.688,180.777 L117.045,180.070 L117.014,179.336 L115.787,178.569 L115.510,178.048 L114.707,177.268 L114.528,177.096 L113.824,176.822 L113.700,176.146 L112.228,175.442 L111.860,174.552 L110.017,173.081 L108.914,171.917 L109.220,171.702 L108.177,170.842 L107.746,169.891 L107.135,169.278 L107.135,168.053 L106.398,167.102 L106.398,166.459 L105.936,166.091 L105.078,164.312 L105.138,163.884 L106.120,164.219 L106.887,163.576 L107.072,161.338 L107.196,160.203 L107.655,160.663 L109.435,160.234 L108.177,159.928 L107.377,158.640 L108.238,158.516 L108.289,157.555 L108.299,157.321 L107.287,156.798 L108.299,154.869 L109.589,153.427 L109.281,152.720 L109.442,152.561 L110.081,151.923 L109.498,151.310 L110.048,149.901 L109.897,148.336 L109.160,147.295 L109.160,146.160 L109.435,145.638 L108.822,144.657 L107.625,145.178 L107.257,144.750 L106.550,144.657 L106.061,142.175 L105.417,142.510 L104.866,142.251 L104.833,142.236 L104.526,142.420 L103.791,141.653 L103.390,142.788 L102.347,143.002 L101.734,142.725 L99.861,143.401 L99.278,143.157 L98.480,143.646 L94.552,143.860 L93.081,143.462 L92.036,142.511 L91.576,141.101 L91.024,140.826 L91.054,139.537 L90.042,137.575 L88.386,135.951 L85.410,134.387 L84.120,134.907 L82.537,134.574 L82.370,134.539 L79.579,135.490 L78.125,135.301 L77.706,135.245 L75.527,136.594 L75.184,136.640 L72.980,136.933 L71.047,137.853 L68.929,139.629 L66.474,139.846 L62.975,141.531 L61.380,140.828 L59.200,140.520 L58.993,140.144 L58.404,139.080 L57.636,139.264 L57.452,140.275 L55.581,139.385 L53.555,140.031 L48.184,140.062 L46.651,140.276 L46.620,140.674 L43.827,141.716 L43.519,142.115 L42.631,142.115 L41.218,143.340 L40.832,143.201 L36.830,141.747 L33.732,139.446 L32.872,139.356 L30.356,136.841 L30.182,136.725 L30.180,136.726 L28.667,135.707 L28.053,135.676 L27.011,134.206 L26.336,133.898 L26.642,133.315 L26.517,133.247 L26.029,132.977 L24.984,132.977 L24.494,132.977 L22.323,131.855 L21.405,131.626 L21.634,131.136 L21.052,130.481 L20.548,129.991 L20.885,129.287 L20.854,129.103 L20.043,129.409 L19.141,128.430 L19.141,127.515 L18.725,126.234 L17.958,126.110 L17.651,125.466 L18.204,124.425 L17.621,124.117 L17.682,123.504 L18.112,122.737 L18.059,122.694 L17.467,122.215 L16.363,121.633 L16.056,120.407 L15.197,120.377 L14.828,120.009 L14.860,119.365 L15.166,119.057 L14.491,118.753 L14.122,119.273 L13.509,119.028 L12.588,118.967 L11.668,117.709 L12.037,116.208 L11.392,115.502 L11.317,115.524 L10.349,115.807 L10.165,115.562 L10.225,114.889 L8.506,115.073 L9.458,114.032 L8.997,113.999 L9.243,113.630 L8.876,113.234 L8.200,113.141 L7.955,112.803 L9.981,112.773 L10.318,112.528 L9.212,111.915 L8.231,112.130 L7.188,112.498 L6.727,112.405 L6.512,111.976 L5.684,111.916 L4.947,111.179 L5.684,110.626 L5.132,110.566 L3.782,110.503 L3.444,109.890 L3.445,109.872 L3.474,109.093 L3.168,108.818 L3.843,109.002 L4.273,109.156 L5.163,108.604 L3.782,108.112 L2.861,108.604 L2.647,108.296 L3.044,107.867 L3.044,106.949 L3.044,106.642 L2.585,106.059 L3.290,105.353 L4.120,106.395 L5.224,106.364 L5.837,105.782 L4.917,106.026 L3.873,105.507 L3.677,104.896 L3.567,104.556 L4.120,104.157 L3.106,103.514 L3.444,103.451 L3.444,102.624 L2.677,102.501 L1.787,100.939 L0.407,99.835 L2.954,97.504 L3.997,95.602 L4.174,94.283 L4.396,92.628 L5.040,90.114 L6.022,88.734 L6.299,85.821 L5.501,81.622 L4.335,79.841 L4.796,79.505 L5.349,79.505 L5.625,78.126 L5.317,77.268 L5.838,76.746 L4.673,74.998 L4.181,75.397 L3.844,75.213 L3.507,74.231 L2.616,75.243 L2.556,73.680 L2.955,72.792 L2.945,72.628 L2.863,71.288 L3.292,70.428 L3.231,69.417 L3.813,68.804 L4.304,68.680 L5.594,66.321 L6.300,66.044 L5.809,65.676 L5.870,65.277 L7.496,63.131 L7.406,62.518 L8.418,60.310 L9.000,60.004 L10.903,58.226 L11.057,57.060 L13.542,53.442 L13.204,52.400 L14.310,51.756 L14.586,50.959 L17.410,49.487 L18.146,49.455 L18.146,47.861 L19.717,45.669 L20.693,44.305 L24.652,43.568 L27.474,41.023 L28.764,40.901 L29.929,39.644 L30.206,38.508 L32.754,35.627 L33.029,34.462 L32.569,33.879 L32.232,33.541 L32.754,32.039 L32.079,30.690 L32.139,29.801 L33.184,27.655 L34.810,26.182 L34.920,25.204 L34.278,23.797 L36.128,22.467 L36.695,21.596 L37.689,21.276 L39.296,20.205 L39.724,20.188 L40.841,18.997 L42.341,18.492 L43.228,17.866 L43.657,17.834 L45.507,16.123 L46.044,15.068 L46.228,13.400 L47.099,12.254 L47.270,10.054 L48.037,9.195 L48.681,9.257 L49.023,8.947 L49.803,8.672 L50.048,8.977 L49.895,9.208 L49.895,9.665 L50.079,10.308 L50.522,10.643 L51.639,11.835 L52.527,12.020 L53.751,11.835 L54.608,11.393 L55.281,11.438 L56.581,11.791 L57.883,11.531 L58.602,10.750 L58.626,10.742 L58.913,10.835 L59.136,11.606 L59.641,12.126 L61.937,12.309 L62.515,12.283 L63.605,12.232 L64.843,11.835 L65.625,10.995 L65.763,10.506 L66.267,10.047 L67.230,9.558 L68.379,9.481 L68.608,9.160 L69.037,8.854 L69.617,8.838 L69.877,9.083 L70.321,9.083 L70.827,8.426 L70.873,7.799 L71.837,7.203 L72.403,7.188 L73.541,7.028 L75.505,5.524 L76.396,5.647 L77.961,5.586 L78.819,5.279 L79.771,5.800 L80.384,5.832 L81.430,4.819 L82.194,5.127 L83.055,5.126 L83.454,4.298 L83.977,4.176 L84.711,4.422 L85.110,4.328 L85.971,4.451 L87.044,4.268 L87.536,4.422 L88.639,4.482 L89.161,5.311 L90.083,5.311 L90.911,4.666 L91.554,4.666 L92.077,4.880 L92.445,4.267 L93.273,4.114 L93.336,3.562 L94.286,3.347 L94.869,3.777 L94.962,4.421 L96.343,4.574 L97.047,3.899 L97.080,3.470 L98.183,3.869 L99.074,4.636 L100.793,4.145 L101.406,4.267 L102.543,4.053 L102.755,4.295 L102.757,4.297 L103.800,3.377 L105.271,2.641 L106.347,2.427 L106.776,3.009 L106.809,2.489 L107.697,2.305 L108.220,2.764 L108.126,3.470 L108.525,3.622 L109.138,5.001 L109.537,5.248 L110.030,4.726 L111.471,3.407 L111.840,3.684 L111.839,4.481 L111.042,5.676 L110.981,6.413 L109.999,7.087 L109.815,8.161 L110.797,9.479 L111.993,9.939 L111.963,11.257 L112.268,11.473 L112.422,12.055 L111.993,12.514 L112.331,12.974 L112.023,13.343 L110.857,14.508 L108.832,15.918 L108.434,17.115 L109.077,18.279 L110.367,19.168 L110.950,19.047 L111.134,19.658 L111.685,19.904 L111.993,19.658 L111.932,19.351 L112.177,19.168 L112.790,19.506 L112.821,20.088 L112.944,20.517 L114.141,21.252 L114.620,21.347 L115.552,21.528 L116.319,22.265 L118.313,22.693 L121.168,22.172 L122.425,22.664 L124.667,22.724 L126.048,23.614 L128.655,23.982 L129.667,25.330 L129.637,26.587 L130.897,29.010 L132.247,29.684 L133.812,29.684 L134.241,29.439 L135.559,29.592 L138.568,30.849 L140.446,31.814 L141.667,32.807 L143.230,34.091 L145.005,34.795 L145.845,34.474 L147.223,33.312 L147.362,32.929 L148.417,31.860 L148.756,30.941 L148.263,29.315 L147.529,28.182 L147.650,26.096 L148.173,25.697 L148.418,24.594 L149.400,23.643 L151.119,22.815 L153.113,22.631 L154.372,21.987 L154.678,21.987 L155.539,22.416 L155.968,22.049 L156.304,22.233 L157.717,22.600 L158.605,22.600 L160.325,23.550 L160.355,24.041 L160.049,24.163 L160.355,24.623 L161.799,25.022 L162.871,25.114 L163.424,25.605 L166.155,25.942 L166.893,25.819 L167.627,25.942 L168.210,26.586 L168.579,27.716 L168.579,27.721 L168.977,27.598 L171.005,27.504 L172.570,28.027 L175.730,28.273 L177.048,28.549 L178.186,29.344 L178.676,29.038 L179.135,29.038 L180.301,29.775 L181.682,29.682 L182.634,29.774 L184.106,30.693 L185.458,30.693 L185.610,30.325 L186.471,29.498 L187.513,29.161 L188.036,28.885 L189.116,28.296 L189.606,27.944 L190.754,27.914 L191.565,27.807 L190.924,28.081 L190.141,28.174 L190.121,28.362 L190.398,28.639 L191.287,28.271 L192.055,28.362 L192.822,28.271 L192.698,27.996 L192.115,27.872 L192.332,27.627 L193.713,27.996 L194.541,28.271 L195.215,28.180 L195.553,28.516 L195.154,28.701 L195.339,29.406 L196.166,29.865 L196.719,30.693 L196.750,30.172 L196.197,29.344 L196.381,28.650 L197.858,29.694 L199.885,29.142 L202.467,29.572 L203.573,29.141 L204.098,28.435 L205.355,26.747 L206.524,24.412 L206.829,21.465 L207.695,20.491 L207.814,20.359 L207.814,19.254 L208.551,18.210 L209.227,17.165 L209.412,14.281 L209.965,14.156 L209.980,13.942 L210.088,12.376 L210.273,11.516 L210.008,10.456 L209.334,9.108 L209.150,7.880 L209.700,7.666 L209.723,7.584 L210.525,7.736 L211.371,7.589 L212.161,7.296 L212.073,6.392 L212.600,6.070 L212.628,4.552 L212.863,3.909 L214.032,4.202 L214.733,4.375 L216.692,3.616 L217.159,3.558 L217.745,3.208 L219.850,3.003 L220.610,3.207 L221.019,3.587 L222.337,3.850 L224.177,3.909 L224.354,3.558 L225.404,3.236 L226.020,2.565 L227.451,2.127 L228.476,2.127 L229.263,1.980 L231.310,2.098 L232.918,1.542 L234.059,1.512 L234.383,1.779 L235.491,0.871 L236.458,0.871 L236.866,0.549 L238.532,0.549 L239.936,0.899 L240.989,0.607 L241.544,0.957 L241.513,1.746 L242.185,2.066 L243.180,1.775 L243.942,1.833 L244.320,2.856 L244.290,3.586 L244.671,4.374 L245.285,4.521 L245.696,5.193 L246.075,6.127 L246.807,6.537 L247.400,6.623 L248.776,7.415 L249.376,7.561 L250.255,7.473 L250.813,7.751 L251.163,7.986 L250.916,8.161 L250.124,8.426 L249.641,8.523 L249.730,9.575 L250.050,9.779 L250.050,11.210 L249.553,11.532 L249.028,11.415 L248.881,12.671 L248.442,13.051 L248.414,14.541 L248.179,15.096 L248.442,15.505 L248.122,15.942 L248.122,16.497 L248.677,16.556 L249.116,17.111 L249.992,17.286 L250.166,17.870 L251.075,18.629 L250.694,19.477 L250.928,19.769 L250.782,20.265 L251.627,20.908 L252.039,20.617 L252.741,20.558 L255.752,22.544 L256.189,22.368 L256.686,22.719 L257.446,24.150 L258.208,24.560 L259.054,26.371 L258.208,27.130 L258.147,28.329 L258.470,29.409 L259.755,29.409 L260.020,31.921 L260.722,32.418 L261.598,32.768 L261.896,33.013 L261.467,33.195 L261.042,34.138 L260.944,34.360 L261.343,36.168 L259.010,36.628 L260.606,37.672 L260.790,37.303 L261.065,37.918 L261.098,38.591 L261.557,39.113 L261.403,39.113 L261.249,39.205 L261.676,39.736 L261.986,40.124 L262.261,39.970 L262.261,40.644 L262.784,40.921 L263.215,41.902 L263.980,43.957 L265.361,44.295 L266.037,44.417 L266.376,44.908 L266.037,44.693 L265.790,44.754 L265.730,45.030 L266.313,45.673 L266.805,45.704 L268.123,47.606 L268.491,47.606 L269.014,48.403 L269.014,48.862 L269.750,50.826 L269.750,51.285 L269.288,51.162 L269.811,52.144 L271.868,54.718 L272.050,55.762 L272.726,56.712 L272.949,56.570 L273.155,56.436 L273.155,55.608 L272.880,55.270 L272.696,54.688 L272.820,53.462 L273.155,53.462 L273.370,53.615 L273.155,52.388 L273.340,52.388 L273.186,51.745 L273.464,51.531 L273.464,51.194 L273.769,51.162 L273.893,50.794 L274.201,50.794 L274.905,51.346 L274.965,51.775 L275.304,51.775 L275.458,52.052 L275.183,53.370 L274.998,53.370 L275.150,54.748 L275.427,54.748 L275.856,55.547 L275.548,57.539 L275.089,57.632 L275.104,57.657 L275.213,57.846 L275.887,57.786 L275.518,58.244 L275.488,58.643 L275.856,59.287 L276.071,59.195 L276.094,59.211 L276.409,59.410 L276.747,59.043 L276.992,60.882 L277.636,60.605 L278.249,60.667 L278.895,60.851 L280.551,59.563 L281.932,59.870 L282.515,59.747 L282.854,59.930 L283.651,59.870 L284.020,60.330 L284.878,60.238 L286.075,60.022 L286.259,59.654 L286.504,59.593 L286.443,58.949 L286.966,58.949 L287.304,58.704 L287.670,59.225 L288.715,58.121 L288.501,57.631 L288.162,57.508 L288.531,56.926 L290.863,54.932 L290.863,53.828 L293.380,52.315 L293.610,51.917 L293.620,51.328 L293.625,50.969 L293.764,50.586 L293.978,50.847 L294.190,50.586 L294.375,49.485 L294.713,49.517 L294.988,49.440 L295.188,49.746 L295.018,49.715 L294.849,49.853 L295.049,50.098 L294.895,50.556 L295.079,50.664 L294.975,51.806 L294.637,52.449 L294.612,52.943 L294.607,53.061 L294.821,53.246 L295.190,53.122 L295.314,53.675 L295.402,54.685 L295.619,57.110 L296.969,58.766 L297.093,59.317 L299.362,61.217 L300.374,61.493 L300.897,61.249 L301.664,61.217 L303.474,61.556 L304.486,61.340 L305.039,61.371 L306.175,62.874 L306.483,63.916 L307.187,64.560 L307.556,65.295 L309.060,66.522 L309.797,66.654 L310.057,66.944 L310.012,67.724 ZM213.726,138.422 L213.425,138.758 L212.064,140.279 L213.726,138.422 ZM209.608,208.420 L208.820,211.291 L208.616,212.042 L209.608,208.420 ZM15.390,108.477 L15.394,108.523 L15.544,109.761 L15.390,108.477 ZM21.752,99.836 L21.743,99.828 L22.290,100.295 L21.752,99.836 ZM36.058,45.867 L36.035,47.017 L36.058,45.886 L36.058,45.867 ZM49.807,116.930 L49.303,117.278 L49.926,116.849 L49.807,116.930 ZM72.457,99.050 L72.303,99.360 L72.575,98.815 L72.457,99.050 ZM80.097,110.460 L80.370,110.430 L80.799,110.382 L80.097,110.460 ZM107.607,33.799 L105.091,25.699 L107.610,33.809 L107.607,33.799 ZM115.513,152.614 L115.513,157.441 L115.513,152.621 L115.513,152.614 ZM119.087,107.401 L118.623,107.058 L119.440,107.663 L119.087,107.401 ZM122.522,180.698 L121.734,181.422 L122.643,180.587 L122.522,180.698 ZM124.411,104.919 L123.659,104.634 L124.949,105.123 L124.411,104.919 ZM123.071,152.556 L123.033,152.556 L128.228,152.654 L123.071,152.556 ZM126.632,107.509 L126.627,107.507 L128.639,108.523 L126.632,107.509 ZM133.295,129.527 L133.267,128.808 L133.305,129.787 L133.295,129.527 ZM135.708,151.100 L135.609,151.264 L137.523,148.078 L135.708,151.100 ZM145.482,146.040 L145.469,146.262 L145.527,145.384 L145.482,146.040 ZM161.997,115.792 L162.151,115.438 L162.232,115.248 L161.997,115.792 ZM166.158,79.902 L166.156,79.879 L166.443,95.928 L166.158,79.902 ZM169.716,70.075 L168.316,37.933 L170.061,78.033 L169.716,70.075 ZM170.589,234.270 L170.009,233.574 L170.594,234.278 L170.589,234.270 ZM181.703,140.565 L181.554,140.510 L181.831,140.613 L181.703,140.565 ZM188.941,167.554 L189.820,166.748 L190.022,166.561 L188.941,167.554 ZM193.959,171.217 L193.959,171.839 L193.959,171.446 L193.959,171.217 ZM204.375,218.908 L203.297,219.168 L203.257,219.178 L204.375,218.908 ZM197.322,272.122 L196.941,272.205 L196.663,272.268 L197.322,272.122 ZM194.145,253.698 L194.922,254.343 L194.799,254.239 L194.145,253.698 ZM194.782,165.335 L199.722,165.315 L203.596,165.105 L201.292,165.229 L199.722,165.315 L198.185,165.320 L194.782,165.335 ZM209.686,28.262 L209.530,30.024 L209.820,26.753 L209.686,28.262 ZM210.232,23.481 L210.012,23.461 L209.909,23.452 L210.232,23.481 ZM209.909,19.712 L210.315,19.691 L210.358,19.690 L210.464,19.683 L209.909,19.712 ZM224.489,24.518 L224.282,24.493 L228.089,24.961 L224.489,24.518 ZM264.635,85.641 L279.975,81.060 L291.504,77.617 L264.635,85.641 ZM203.445,10.327 L202.538,11.379 L202.859,12.109 L202.801,12.868 L201.720,12.753 L201.107,13.044 L200.259,13.833 L199.322,14.038 L198.855,14.417 L198.389,14.126 L197.275,14.183 L196.341,13.629 L195.814,12.869 L195.814,11.963 L196.283,11.848 L196.781,11.263 L197.568,11.585 L198.123,11.408 L198.358,10.884 L198.389,10.356 L199.176,10.356 L199.996,10.766 L201.047,10.708 L202.859,10.007 L204.119,9.217 L204.586,9.187 L204.818,9.421 L204.381,9.744 L203.445,10.327 ZM124.915,9.218 L124.945,8.638 L126.169,8.821 L126.185,9.432 L125.740,9.907 L124.915,9.218 ZM20.259,130.236 L20.588,130.619 L20.653,131.174 L20.309,131.147 L19.761,130.801 L19.658,130.443 L19.827,130.135 L20.259,130.236 ZM104.268,147.139 L104.576,146.200 L105.439,145.323 L105.719,145.600 L105.808,146.757 L105.220,148.339 L104.445,148.223 L103.682,147.799 L103.740,147.184 L104.268,147.139 ZM264.945,216.282 L264.394,216.252 L264.791,215.624 L264.945,215.470 L265.084,215.639 L265.525,215.899 L265.359,216.664 L264.945,216.282 ZM266.184,216.174 L266.093,215.838 L266.199,215.609 L266.368,215.945 L266.184,216.174 ZM266.843,213.836 L266.353,214.570 L266.169,214.234 L266.858,213.546 L266.843,213.836 ZM242.283,252.013 L243.169,251.079 L243.078,249.765 L243.368,249.382 L244.547,249.107 L245.037,248.557 L245.113,247.042 L245.847,246.446 L246.092,245.758 L246.567,245.667 L246.781,244.612 L247.592,244.093 L247.976,242.226 L247.791,241.677 L248.342,241.112 L248.326,240.758 L247.622,239.979 L247.700,239.384 L246.582,237.228 L246.628,236.234 L246.247,235.073 L246.782,234.306 L246.153,233.788 L246.153,233.177 L247.302,231.969 L247.256,231.616 L248.466,229.752 L248.312,228.499 L248.680,227.933 L249.506,227.948 L249.826,228.254 L250.255,228.208 L251.861,226.725 L252.275,227.383 L252.719,226.725 L253.115,226.939 L253.133,227.550 L253.406,227.444 L253.729,227.520 L253.590,226.372 L253.959,226.311 L254.171,226.007 L255.213,226.740 L256.162,225.761 L256.543,225.807 L256.528,226.861 L256.867,227.151 L257.371,227.320 L257.599,226.816 L257.417,226.357 L257.644,225.179 L259.131,223.925 L259.482,224.187 L259.101,224.827 L259.482,224.906 L259.573,225.426 L260.232,224.981 L260.736,224.844 L260.782,224.447 L260.247,224.278 L259.881,223.514 L260.827,222.964 L260.997,222.611 L260.522,222.351 L261.272,221.632 L261.562,222.122 L261.380,222.366 L261.395,223.254 L262.511,222.305 L262.650,221.832 L263.261,221.602 L263.642,222.046 L263.995,221.617 L263.889,221.128 L263.092,220.901 L262.895,220.119 L263.796,219.950 L264.210,220.074 L264.516,219.784 L264.318,219.433 L263.506,218.621 L263.582,217.660 L264.104,217.152 L264.470,217.337 L264.546,218.207 L264.990,218.484 L265.510,218.101 L265.601,217.428 L266.293,216.664 L266.825,216.848 L267.318,216.053 L267.318,214.845 L268.128,214.096 L268.128,213.851 L267.638,213.347 L267.623,212.828 L266.964,211.940 L267.408,211.924 L268.095,212.383 L268.799,211.909 L268.539,211.359 L269.582,210.410 L269.857,211.221 L269.458,212.048 L270.163,212.353 L270.253,213.162 L270.958,214.065 L271.278,213.941 L271.586,214.570 L271.662,216.373 L272.273,217.168 L272.182,219.248 L271.997,219.677 L272.257,220.792 L272.257,221.665 L272.027,222.030 L272.227,222.764 L273.022,223.834 L273.070,224.658 L272.780,224.936 L272.686,225.655 L272.472,225.915 L272.426,226.616 L272.136,227.136 L271.631,227.015 L270.942,226.099 L270.773,225.256 L270.377,224.951 L269.841,225.211 L269.856,226.174 L270.162,226.386 L270.222,227.382 L269.856,228.069 L270.192,228.389 L270.331,229.367 L269.748,230.056 L269.856,230.623 L269.013,231.784 L268.798,232.808 L269.152,233.405 L268.937,234.596 L268.571,235.025 L268.187,236.677 L267.713,238.939 L266.794,240.407 L266.673,240.972 L265.860,242.455 L265.860,243.938 L265.110,245.056 L264.057,248.342 L262.954,250.299 L262.603,251.934 L261.975,252.562 L261.546,254.045 L260.980,256.782 L260.215,257.972 L259.925,257.972 L260.016,258.186 L259.665,259.533 L259.099,259.959 L259.296,260.129 L259.372,261.352 L258.562,261.841 L258.531,262.575 L257.890,263.614 L257.461,264.883 L256.817,264.976 L256.451,265.695 L255.121,266.214 L254.338,266.030 L251.799,266.275 L251.019,267.178 L250.054,267.758 L249.196,267.683 L248.679,268.019 L248.464,267.819 L248.449,267.469 L247.944,267.360 L247.255,266.460 L246.611,266.306 L246.412,266.030 L245.847,266.228 L245.311,265.602 L244.960,265.052 L244.516,264.808 L243.981,263.983 L243.522,263.708 L243.476,263.156 L243.186,262.821 L243.307,261.123 L243.186,259.793 L243.138,258.954 L243.951,258.754 L244.211,258.495 L243.933,258.570 L243.413,258.266 L243.229,257.683 L243.386,256.765 L242.343,255.499 L242.298,254.212 L242.114,253.723 L242.374,253.083 L242.283,252.013 ZM270.601,230.417 L270.846,230.401 L271.164,229.922 L270.952,230.621 L270.677,231.100 L270.336,231.867 L270.321,231.335 L270.366,230.802 L270.601,230.417 ZM283.308,111.273 L282.432,111.392 L281.377,111.215 L282.225,110.953 L283.308,111.273 ZM286.976,109.053 L287.446,108.658 L287.958,108.730 L288.178,109.142 L288.690,109.257 L289.261,109.096 L290.066,108.920 L290.609,109.200 L291.252,109.331 L291.310,109.638 L291.002,110.004 L290.389,110.049 L289.511,110.623 L288.294,110.811 L287.430,110.635 L286.933,110.241 L286.406,109.946 L286.903,109.684 L286.976,109.053 Z"/>
</svg>